{
  "accessors": [
    {
      "bufferView": 0,
      "componentType": 5126,
      "count": 1644,
      "max": [
        31.398073196411133,
        29.25733757019043,
        47.33595657348633
      ],
      "min": [
        -31.39807891845703,
        -30.483182907104492,
        -1.3835811614990234
      ],
      "type": "VEC3"
    },
    {
      "bufferView": 0,
      "byteOffset": 12,
      "componentType": 5126,
      "count": 1644,
      "type": "VEC3"
    },
    {
      "bufferView": 1,
      "componentType": 5125,
      "count": 9216,
      "type": "SCALAR"
    },
    {
      "bufferView": 2,
      "componentType": 5126,
      "count": 334,
      "max": [
        -20.27050018310547,
        -49.72797393798828,
        47.24598693847656
      ],
      "min": [
        -56.92017364501953,
        -74.60127258300781,
        23.517282485961914
      ],
      "type": "VEC3"
    },
    {
      "bufferView": 2,
      "byteOffset": 12,
      "componentType": 5126,
      "count": 334,
      "type": "VEC3"
    },
    {
      "bufferView": 3,
      "componentType": 5125,
      "count": 1044,
      "type": "SCALAR"
    },
    {
      "bufferView": 4,
      "componentType": 5126,
      "count": 3516,
      "max": [
        -14.376145362854004,
        25.905139923095703,
        76.31456756591797
      ],
      "min": [
        -69.52462768554688,
        -66.99404907226563,
        36.6031379699707
      ],
      "type": "VEC3"
    },
    {
      "bufferView": 4,
      "byteOffset": 12,
      "componentType": 5126,
      "count": 3516,
      "type": "VEC3"
    },
    {
      "bufferView": 5,
      "componentType": 5125,
      "count": 3516,
      "type": "SCALAR"
    },
    {
      "bufferView": 6,
      "componentType": 5126,
      "count": 454,
      "max": [
        4.758399486541748,
        4.218416213989258,
        16.01064682006836
      ],
      "min": [
        -4.16746187210083,
        -4.218417167663574,
        1.784246802330017
      ],
      "type": "VEC3"
    },
    {
      "bufferView": 6,
      "byteOffset": 12,
      "componentType": 5126,
      "count": 454,
      "type": "VEC3"
    },
    {
      "bufferView": 7,
      "componentType": 5125,
      "count": 2304,
      "type": "SCALAR"
    },
    {
      "bufferView": 8,
      "componentType": 5126,
      "count": 456,
      "max": [
        10.1856689453125,
        11.38088321685791,
        20.434492111206055
      ],
      "min": [
        -8.139483451843262,
        -12.227210998535156,
        -3.287505023763515e-06
      ],
      "type": "VEC3"
    },
    {
      "bufferView": 8,
      "byteOffset": 12,
      "componentType": 5126,
      "count": 456,
      "type": "VEC3"
    },
    {
      "bufferView": 9,
      "componentType": 5125,
      "count": 2304,
      "type": "SCALAR"
    },
    {
      "bufferView": 10,
      "componentType": 5126,
      "count": 56,
      "max": [
        -67.3248062133789,
        18.014999389648438,
        64.55903625488281
      ],
      "min": [
        -69.5025863647461,
        5.3255791664123535,
        44.45709228515625
      ],
      "type": "VEC3"
    },
    {
      "bufferView": 10,
      "byteOffset": 12,
      "componentType": 5126,
      "count": 56,
      "type": "VEC3"
    },
    {
      "bufferView": 11,
      "componentType": 5125,
      "count": 324,
      "type": "SCALAR"
    }
  ],
  "asset": {
    "version": "2.0"
  },
  "bufferViews": [
    {
      "buffer": 0,
      "byteLength": 52608,
      "byteStride": 32,
      "target": 34962
    },
    {
      "buffer": 0,
      "byteLength": 36864,
      "byteOffset": 52608,
      "target": 34963
    },
    {
      "buffer": 0,
      "byteLength": 10688,
      "byteOffset": 89472,
      "byteStride": 32,
      "target": 34962
    },
    {
      "buffer": 0,
      "byteLength": 4176,
      "byteOffset": 100160,
      "target": 34963
    },
    {
      "buffer": 0,
      "byteLength": 112512,
      "byteOffset": 104336,
      "byteStride": 32,
      "target": 34962
    },
    {
      "buffer": 0,
      "byteLength": 14064,
      "byteOffset": 216848,
      "target": 34963
    },
    {
      "buffer": 0,
      "byteLength": 14528,
      "byteOffset": 230912,
      "byteStride": 32,
      "target": 34962
    },
    {
      "buffer": 0,
      "byteLength": 9216,
      "byteOffset": 245440,
      "target": 34963
    },
    {
      "buffer": 0,
      "byteLength": 14592,
      "byteOffset": 254656,
      "byteStride": 32,
      "target": 34962
    },
    {
      "buffer": 0,
      "byteLength": 9216,
      "byteOffset": 269248,
      "target": 34963
    },
    {
      "buffer": 0,
      "byteLength": 1792,
      "byteOffset": 278464,
      "byteStride": 32,
      "target": 34962
    },
    {
      "buffer": 0,
      "byteLength": 1296,
      "byteOffset": 280256,
      "target": 34963
    }
  ],
  "buffers": [
    {
      "byteLength": 281552,
      "uri": "on2.bin"
    }
  ],
  "materials": [
    {
      "name": "fallback Material",
      "pbrMetallicRoughness": {
        "baseColorFactor": [
          1.0,
          0.9019607843137255,
          0.19215686274509805,
          1.0
        ]
      }
    },
    {
      "name": "fallback Material",
      "pbrMetallicRoughness": {
        "baseColorFactor": [
          0.8901960784313725,
          0.6,
          0.6,
          1.0
        ]
      }
    },
    {
      "name": "fallback Material",
      "pbrMetallicRoughness": {
        "baseColorFactor": [
          0.11764705882352941,
          0.11764705882352941,
          0.11764705882352941,
          1.0
        ]
      }
    },
    {
      "name": "fallback Material",
      "pbrMetallicRoughness": {
        "baseColorFactor": [
          1.0,
          0.9019607843137255,
          0.19215686274509805,
          1.0
        ]
      }
    },
    {
      "name": "fallback Material",
      "pbrMetallicRoughness": {
        "baseColorFactor": [
          1.0,
          0.9019607843137255,
          0.19215686274509805,
          1.0
        ]
      }
    },
    {
      "name": "fallback Material"
    }
  ],
  "meshes": [
    {
      "name": "on-からだ",
      "primitives": [
        {
          "attributes": {
            "NORMAL": 1,
            "POSITION": 0
          },
          "indices": 2,
          "material": 0,
          "mode": 4
        }
      ]
    },
    {
      "name": "口あ",
      "primitives": [
        {
          "attributes": {
            "NORMAL": 4,
            "POSITION": 3
          },
          "indices": 5,
          "material": 1,
          "mode": 4
        }
      ]
    },
    {
      "name": "on-目",
      "primitives": [
        {
          "attributes": {
            "NORMAL": 7,
            "POSITION": 6
          },
          "indices": 8,
          "material": 2,
          "mode": 4
        }
      ]
    },
    {
      "name": "on-2L左手.on-1R右手",
      "primitives": [
        {
          "attributes": {
            "NORMAL": 10,
            "POSITION": 9
          },
          "indices": 11,
          "material": 3,
          "mode": 4
        }
      ]
    },
    {
      "name": "on-2L左足.on-1R足",
      "primitives": [
        {
          "attributes": {
            "NORMAL": 13,
            "POSITION": 12
          },
          "indices": 14,
          "material": 4,
          "mode": 4
        }
      ]
    },
    {
      "name": "白目",
      "primitives": [
        {
          "attributes": {
            "NORMAL": 16,
            "POSITION": 15
          },
          "indices": 17,
          "material": 5,
          "mode": 4
        }
      ]
    }
  ],
  "nodes": [
    {
      "matrix": [
        0.0254,
        0.0,
        0.0,
        0.0,
        0.0,
        0.0254,
        0.0,
        0.0,
        0.0,
        0.0,
        0.0254,
        0.0,
        0.0,
        0.0,
        0.0,
        1.0
      ],
      "mesh": 0,
      "name": "on-からだ"
    },
    {
      "children": [
        0
      ],
      "matrix": [
        2.1588776111602783,
        -0.018961425870656967,
        -0.08983132988214493,
        0.0,
        -0.08960549533367157,
        -0.6818922162055969,
        -1.965586543083191,
        0.0,
        -0.011544879525899887,
        2.13198184967041,
        -0.7279186248779297,
        0.0,
        0.007070605391263961,
        1.010481150817871,
        0.4715398223876953,
        1.0
      ]
    },
    {
      "matrix": [
        0.0254,
        0.0,
        0.0,
        0.0,
        0.0,
        0.0254,
        0.0,
        0.0,
        0.0,
        0.0,
        0.0254,
        0.0,
        0.0,
        0.0,
        0.0,
        1.0
      ],
      "mesh": 1,
      "name": "口あ"
    },
    {
      "children": [
        2
      ],
      "matrix": [
        0.8010262250900267,
        -0.17509688436985016,
        -0.5724499821662903,
        0.0,
        -0.5986193418502807,
        -0.24000035226345062,
        -0.7642350196838378,
        0.0,
        -0.003573026275262236,
        0.9548510909080503,
        -0.2970626950263977,
        0.0,
        -0.02072780759334564,
        0.8407287216186523,
        0.1558931734085083,
        1.0
      ]
    },
    {
      "matrix": [
        0.0254,
        0.0,
        0.0,
        0.0,
        0.0,
        0.0254,
        0.0,
        0.0,
        0.0,
        0.0,
        0.0254,
        0.0,
        0.0,
        0.0,
        0.0,
        1.0
      ],
      "mesh": 2,
      "name": "on-目"
    },
    {
      "children": [
        4
      ],
      "matrix": [
        0.3948218524456023,
        -0.3549811840057373,
        -0.8483349084854126,
        0.0,
        -0.9187356233596802,
        -0.15916140377521515,
        -0.3618481457233429,
        0.0,
        -0.005967745557427406,
        0.9280744194984436,
        -0.3702935278415679,
        0.0,
        0.08044643411636353,
        0.8849450149536132,
        0.5462904922485351,
        1.0
      ]
    },
    {
      "matrix": [
        0.0254,
        0.0,
        0.0,
        0.0,
        0.0,
        0.0254,
        0.0,
        0.0,
        0.0,
        0.0,
        0.0254,
        0.0,
        0.0,
        0.0,
        0.0,
        1.0
      ],
      "mesh": 3,
      "name": "on-2L左手.on-1R右手"
    },
    {
      "children": [
        6
      ],
      "matrix": [
        -0.08667733520269394,
        -1.9677127599716187,
        0.889277756214142,
        0.0,
        -0.05973470211029053,
        -1.0337378978729248,
        -2.3420872688293457,
        0.0,
        2.265397310256958,
        -0.15978913009166718,
        -0.14215728640556335,
        0.0,
        -2.4391358078002927,
        2.1209160842895507,
        0.10482172679901122,
        1.0
      ]
    },
    {
      "matrix": [
        0.0254,
        0.0,
        0.0,
        0.0,
        0.0,
        0.0254,
        0.0,
        0.0,
        0.0,
        0.0,
        0.0254,
        0.0,
        0.0,
        0.0,
        0.0,
        1.0
      ],
      "mesh": 4,
      "name": "on-2L左足.on-1R足"
    },
    {
      "children": [
        8
      ],
      "matrix": [
        2.309438228607178,
        -0.028444379568099976,
        -0.08857223391532898,
        0.0,
        -0.0951295793056488,
        -0.006867051124572754,
        -2.1599600315093994,
        0.0,
        0.028151601552963257,
        2.3102755546569824,
        -0.03284512460231781,
        0.0,
        -0.6781331714630127,
        0.0055649703979492185,
        0.20574982013702392,
        1.0
      ]
    },
    {
      "matrix": [
        0.0254,
        0.0,
        0.0,
        0.0,
        0.0,
        0.0254,
        0.0,
        0.0,
        0.0,
        0.0,
        0.0254,
        0.0,
        0.0,
        0.0,
        0.0,
        1.0
      ],
      "mesh": 4,
      "name": "on-2L左足.on-1R足"
    },
    {
      "children": [
        10
      ],
      "matrix": [
        -2.309436321258545,
        -0.02286091446876526,
        0.09053225815296176,
        0.0,
        -0.09520170092582703,
        -0.12153127044439316,
        -2.155714273452759,
        0.0,
        -0.027897506952285774,
        2.3071489334106445,
        -0.13802610337734222,
        0.0,
        0.6799516166687012,
        -0.007096078491210937,
        0.2020802887916565,
        1.0
      ]
    },
    {
      "matrix": [
        0.0254,
        0.0,
        0.0,
        0.0,
        0.0,
        0.0254,
        0.0,
        0.0,
        0.0,
        0.0,
        0.0254,
        0.0,
        0.0,
        0.0,
        0.0,
        1.0
      ],
      "mesh": 3,
      "name": "on-2L左手.on-1R右手"
    },
    {
      "children": [
        12
      ],
      "matrix": [
        -0.5776900053024292,
        -2.085160970687866,
        0.19208785891532898,
        0.0,
        0.22615846991539007,
        -0.43633449077606207,
        -2.4987270832061776,
        0.0,
        -2.076883554458618,
        0.5037040710449219,
        -0.43574166297912603,
        0.0,
        2.2945128524780274,
        1.4369957176208497,
        0.18158978805541992,
        1.0
      ]
    },
    {
      "matrix": [
        0.0254,
        0.0,
        0.0,
        0.0,
        0.0,
        0.0254,
        0.0,
        0.0,
        0.0,
        0.0,
        0.0254,
        0.0,
        0.0,
        0.0,
        0.0,
        1.0
      ],
      "mesh": 5,
      "name": "白目"
    },
    {
      "children": [
        14
      ],
      "matrix": [
        0.3948218822479248,
        -0.35498112440109253,
        -0.8483349084854126,
        0.0,
        -0.9187355637550354,
        -0.15916144847869873,
        -0.3618481159210205,
        0.0,
        -0.005967830307781696,
        0.928074359893799,
        -0.37029367685317993,
        0.0,
        0.08044643411636353,
        0.8849450149536132,
        0.5462904922485351,
        1.0
      ]
    }
  ],
  "scenes": [
    {
      "nodes": [
        1,
        3,
        5,
        7,
        9,
        11,
        13,
        15
      ]
    }
  ]
}
